<svg width="20" height="20" viewBox="0 0 20 20" xmlns="http://www.w3.org/2000/svg"><rect width="2" height="1" x="18" y="14"></rect><rect width="2" height="1" x="18" y="11"></rect><rect width="2" height="1" x="18" y="8"></rect><rect width="2" height="1" x="18" y="5"></rect><rect width="2" height="1" y="14"></rect><rect width="2" height="1" y="11"></rect><rect width="2" height="1" y="8"></rect><rect width="2" height="1" y="5"></rect><rect width="1" height="2" x="5" y="18"></rect><rect width="1" height="2" x="8" y="18"></rect><rect width="1" height="2" x="11" y="18"></rect><rect width="1" height="2" x="14" y="18"></rect><rect width="1" height="2" x="5"></rect><rect width="1" height="2" x="8"></rect><rect width="1" height="2" x="11"></rect><rect width="1" height="2" x="14"></rect><path d="M3,17H17V3H3ZM4,4H16V16H4Z"></path><path d="M6,14h8V6H6ZM7,7h6v6H7Z"></path></svg>