<svg width="40" height="40" viewBox="0 0 20 20" xmlns="http://www.w3.org/2000/svg"><path d="M10,0A10,10,0,1,0,20,10,10,10,0,0,0,10,0Zm0,19a9,9,0,1,1,9-9A9,9,0,0,1,10,19Z"></path><path d="M14.67,7.56a2,2,0,0,0-2,1.07,3,3,0,0,0-1.78-1.48V4A1,1,0,0,0,9.73,3,2.12,2.12,0,0,0,7.56,5.33a2,2,0,0,0,1.07,2A3,3,0,0,0,7.15,9.13H4a1,1,0,0,0-1,1.14,2.12,2.12,0,0,0,2.33,2.17,2,2,0,0,0,2-1.07,3,3,0,0,0,1.78,1.48V16a1,1,0,0,0,1.14,1,2.12,2.12,0,0,0,2.17-2.33,2,2,0,0,0-1.07-2,3,3,0,0,0,1.48-1.78H16a1,1,0,0,0,1-1.14A2.12,2.12,0,0,0,14.67,7.56ZM10,12a2,2,0,1,1,2-2A2,2,0,0,1,10,12Z"></path></svg>