<svg xmlns="http://www.w3.org/2000/svg" xmlns:xlink="http://www.w3.org/1999/xlink" version="1.1" x="0px" y="0px" viewBox="0 0 600 300" style="enable-background:new 0 0 600 258;" xml:space="preserve"><g><g><g><path d="M472.1,204.3c-27.2,0-53.4-15.4-65.8-41.6c-17.1-36.2-1.6-79.6,34.6-96.7c36.2-17.1,79.6-1.6,96.7,34.6     c8.3,17.5,9.3,37.3,2.7,55.5c-6.5,18.3-19.8,32.9-37.3,41.2C493.1,202.1,482.5,204.3,472.1,204.3z M443.4,71.3l2.5,5.2     c-30.4,14.4-43.5,50.8-29.1,81.3c14.4,30.4,50.8,43.5,81.3,29.1c14.7-7,25.9-19.3,31.4-34.6c5.5-15.4,4.7-31.9-2.3-46.7     c-14.4-30.4-50.8-43.5-81.3-29.1L443.4,71.3z"/></g><g><g><path d="M505.8,150c-6.3,0-12.6-1.4-18.4-4.3c-2.9-1.4-4.1-4.9-2.7-7.8c1.4-2.9,4.9-4.1,7.8-2.7c7.3,3.6,15.5,4.1,23.2,1.5      c7.7-2.6,13.9-8.1,17.4-15.4c1.4-2.9,4.9-4.1,7.8-2.7c2.9,1.4,4.1,4.9,2.7,7.8c-4.9,10.1-13.5,17.6-24.1,21.2      C514.9,149.2,510.3,150,505.8,150z"/></g></g><g><g><path d="M511.6,185.3c-19.2,0-36.6-13.4-41-32.9c-0.7-3.1,1.3-6.2,4.4-6.9c3.1-0.7,6.2,1.3,6.9,4.4      c3.6,16.3,19.8,26.7,36.2,23.1c3.1-0.7,6.2,1.3,6.9,4.4c0.7,3.1-1.3,6.2-4.4,6.9C517.6,185,514.6,185.3,511.6,185.3z"/></g></g><g><g><path d="M464.8,203.8c-1.3,0-2.6-0.4-3.6-1.3c-18-14.6-20.8-41-6.2-59c2-2.5,5.7-2.9,8.2-0.9c2.5,2,2.9,5.7,0.9,8.2      c-10.5,13-8.5,32.2,4.5,42.7c2.5,2,2.9,5.7,0.9,8.2C468.2,203.1,466.5,203.8,464.8,203.8z"/></g></g><g><g><path d="M415.7,173.2C415.7,173.2,415.7,173.2,415.7,173.2c-3.2,0-5.8-2.6-5.8-5.8c0.2-23,19-41.6,41.9-41.6c0.1,0,0.2,0,0.3,0      c3.2,0,5.8,2.6,5.8,5.8c0,3.2-2.6,5.8-5.8,5.8c-0.1,0-0.2,0-0.3,0c-16.6,0-30.2,13.5-30.3,30.1      C421.5,170.7,418.9,173.2,415.7,173.2z"/></g></g><g><g><path d="M459.7,121.8c-1.7,0-3.4-0.8-4.6-2.2c-5-6.4-12.2-10.4-20.2-11.4c-8-1-16,1.3-22.4,6.3c-2.5,2-6.2,1.5-8.1-1      c-2-2.5-1.5-6.2,1-8.1c8.8-6.9,19.8-10,30.9-8.7c11.1,1.3,21.1,6.9,28,15.7c2,2.5,1.5,6.2-1,8.1      C462.2,121.4,461,121.8,459.7,121.8z"/></g></g><g><g><path d="M490,129c-2.2,0-4.3-1.2-5.2-3.3c-1.4-2.9-0.1-6.4,2.8-7.7c15.1-7.2,21.6-25.3,14.5-40.4c-1.4-2.9-0.1-6.4,2.8-7.7      c2.9-1.4,6.4-0.1,7.7,2.8c9.9,20.9,0.9,46-20,55.9C491.7,128.8,490.8,129,490,129z"/></g></g><g><g><path d="M476.6,118.1c-0.4,0-0.9-0.1-1.3-0.2c-3.1-0.7-5-3.9-4.3-7c3.8-16.3-6.3-32.7-22.6-36.5c-3.1-0.7-5-3.9-4.3-7      c0.7-3.1,3.9-5.1,7-4.3c22.5,5.3,36.5,27.9,31.2,50.5C481.6,116.3,479.2,118.1,476.6,118.1z"/></g></g><g><path d="M472,157.4c-2.9,0-5.9-0.5-8.7-1.5c-6.5-2.3-11.6-7-14.6-13.2c-2.9-6.2-3.3-13.2-1-19.7s7-11.6,13.2-14.6l0,0     c6.2-2.9,13.2-3.3,19.7-1c6.5,2.3,11.6,7,14.6,13.2c2.9,6.2,3.3,13.2,1,19.7c-2.3,6.5-7,11.6-13.2,14.6     C479.5,156.6,475.8,157.4,472,157.4z M472,117.6c-2.1,0-4.1,0.5-6,1.4l0,0c-3.4,1.6-6,4.5-7.3,8s-1.1,7.4,0.5,10.8s4.5,6,8,7.3     c3.5,1.3,7.4,1.1,10.8-0.5c3.4-1.6,6-4.5,7.3-8c1.3-3.5,1.1-7.4-0.5-10.8c-1.6-3.4-4.5-6-8-7.3     C475.2,117.8,473.6,117.6,472,117.6z M463.5,113.7L463.5,113.7L463.5,113.7z"/></g></g><g><g><path d="M318.9,204.4c-11.4,0-22.7-2.7-33.1-8.1c-35.6-18.3-49.7-62.2-31.4-97.8l0,0c8.9-17.3,23.9-30,42.4-35.9     c18.5-5.9,38.2-4.3,55.4,4.6c17.3,8.9,30,23.9,35.9,42.4c5.9,18.5,4.3,38.2-4.6,55.4c-8.9,17.3-23.9,30-42.4,35.9     C333.8,203.2,326.3,204.4,318.9,204.4z M264.7,103.8c-15.4,29.9-3.6,66.8,26.4,82.2c14.5,7.5,31,8.8,46.6,3.8     c15.5-5,28.2-15.7,35.6-30.2s8.8-31,3.8-46.6c-5-15.5-15.7-28.2-30.2-35.6c-14.5-7.5-31-8.8-46.6-3.8     C284.8,78.5,272.1,89.3,264.7,103.8L264.7,103.8z"/></g><g><g><path d="M338.5,133.6c-2.7,0-5.1-1.9-5.7-4.7c-0.6-3.1,1.4-6.2,4.5-6.8c7.9-1.6,14.8-6.2,19.3-12.9c4.5-6.7,6.1-14.8,4.5-22.8      c-0.6-3.1,1.4-6.2,4.5-6.8c3.1-0.6,6.2,1.4,6.8,4.5c2.2,11,0,22.2-6.2,31.5s-15.7,15.7-26.7,17.9      C339.2,133.5,338.8,133.6,338.5,133.6z"/></g></g><g><g><path d="M357.4,158.8c-9.5,0-19.1-3.2-27-9.8c-2.5-2.1-2.8-5.7-0.7-8.2c2.1-2.5,5.7-2.8,8.2-0.7c6.2,5.2,14.1,7.7,22.1,7      c8.1-0.7,15.4-4.5,20.6-10.7c2.1-2.5,5.7-2.8,8.2-0.7c2.5,2.1,2.8,5.7,0.7,8.2C381.3,153.7,369.4,158.8,357.4,158.8z"/></g></g><g><g><path d="M353.6,194.5c-0.1,0-0.1,0-0.2,0c-11.2-0.3-21.6-4.9-29.3-13.1c-7.7-8.1-11.8-18.8-11.5-30c0.1-3.2,2.8-5.7,6-5.6      c3.2,0.1,5.7,2.7,5.6,6c-0.2,8.1,2.7,15.8,8.3,21.7c5.6,5.9,13.1,9.2,21.2,9.4c3.2,0.1,5.7,2.7,5.6,6      C359.3,192,356.8,194.5,353.6,194.5z"/></g></g><g><g><path d="M296,200.1c-1.8,0-3.5-0.8-4.6-2.3c-13.9-18.5-10.3-44.8,8.2-58.8c2.6-1.9,6.2-1.4,8.1,1.1c1.9,2.6,1.4,6.2-1.1,8.1      c-13.4,10.1-16,29.2-5.9,42.5c1.9,2.6,1.4,6.2-1.1,8.1C298.5,199.7,297.2,200.1,296,200.1z"/></g></g><g><g><path d="M255.7,158.6c-0.5,0-1-0.1-1.4-0.2c-3.1-0.8-5-4-4.2-7.1c2.8-10.9,9.6-20,19.3-25.7c9.6-5.7,20.9-7.3,31.8-4.5      c3.1,0.8,5,4,4.2,7.1c-0.8,3.1-4,5-7.1,4.2c-7.9-2-16-0.8-23,3.3c-7,4.1-11.9,10.7-13.9,18.6      C260.6,156.9,258.3,158.6,255.7,158.6z"/></g></g><g><g><path d="M328,119.8c-0.9,0-1.8-0.2-2.6-0.6c-2.8-1.5-4-5-2.5-7.8c7.7-14.9,1.8-33.2-13.1-40.9c-2.8-1.5-4-5-2.5-7.8      c1.5-2.8,5-4,7.8-2.5c20.6,10.6,28.7,35.9,18.1,56.5C332.2,118.6,330.2,119.8,328,119.8z"/></g></g><g><g><path d="M310.8,119.3c-2.2,0-4.3-1.3-5.3-3.4c-6.9-15.3-24.9-22.1-40.1-15.2c-2.9,1.3-6.4,0-7.7-2.9c-1.3-2.9,0-6.4,2.9-7.7      c21.1-9.5,46,0,55.5,21.1c1.3,2.9,0,6.4-2.9,7.7C312.4,119.2,311.6,119.3,310.8,119.3z"/></g></g><g><path d="M318.9,157.4c-4,0-8-0.9-11.7-2.8c-6.1-3.1-10.6-8.5-12.7-15c-2.1-6.5-1.5-13.5,1.6-19.6v0c6.5-12.6,22-17.6,34.6-11.1     c12.6,6.5,17.6,22,11.1,34.6C337.3,152.3,328.2,157.4,318.9,157.4z M306.4,125.2c-1.7,3.4-2,7.2-0.9,10.8c1.2,3.6,3.6,6.5,7,8.2     c6.9,3.6,15.4,0.8,19-6.1c3.6-6.9,0.8-15.4-6.1-19C318.5,115.6,310,118.3,306.4,125.2L306.4,125.2z"/></g></g><g><g><path d="M165.9,204.3c-40.1,0-72.6-32.6-72.6-72.6c0-40.1,32.6-72.6,72.6-72.6s72.6,32.6,72.6,72.6     C238.5,171.7,205.9,204.3,165.9,204.3z M165.9,70.6c-33.7,0-61,27.4-61,61c0,33.7,27.4,61,61,61c33.7,0,61-27.4,61-61     C226.9,98,199.6,70.6,165.9,70.6z"/></g><g><g><path d="M181.5,125.1c-1.7,0-3.4-0.7-4.5-2.2c-2-2.5-1.6-6.2,0.9-8.2c13.1-10.4,15.2-29.6,4.8-42.6c-2-2.5-1.6-6.2,0.9-8.2      c2.5-2,6.2-1.6,8.2,0.9c14.4,18.1,11.4,44.5-6.6,59C184,124.7,182.7,125.1,181.5,125.1z"/></g></g><g><g><path d="M193.4,142.8c-3.1,0-6.2-0.3-9.3-1.1c-3.1-0.7-5.1-3.8-4.4-6.9c0.7-3.1,3.8-5.1,6.9-4.4c7.9,1.8,16,0.4,22.9-3.9      s11.6-11,13.4-18.9c0.7-3.1,3.8-5.1,6.9-4.4c3.1,0.7,5.1,3.8,4.4,6.9C229.8,129.6,212.5,142.8,193.4,142.8z"/></g></g><g><g><path d="M207.2,175.9c-15.6,0-30.6-8.8-37.9-23.7c-1.4-2.9-0.2-6.4,2.7-7.7c2.9-1.4,6.4-0.2,7.7,2.7      c7.3,15.1,25.4,21.4,40.5,14.2c2.9-1.4,6.4-0.2,7.7,2.7s0.2,6.4-2.7,7.7C219.5,174.5,213.3,175.9,207.2,175.9z"/></g></g><g><g><path d="M174.1,203.7c-0.8,0-1.7-0.2-2.5-0.6c-20.8-10-29.6-35.2-19.6-56c1.4-2.9,4.9-4.1,7.7-2.7c2.9,1.4,4.1,4.9,2.7,7.7      c-7.3,15.1-0.9,33.2,14.2,40.5c2.9,1.4,4.1,4.9,2.7,7.7C178.4,202.5,176.3,203.7,174.1,203.7z"/></g></g><g><g><path d="M119.3,185.2c-2.6,0-5-1.8-5.6-4.5c-2.5-10.9-0.6-22.2,5.4-31.7c6-9.5,15.3-16.1,26.2-18.6c3.1-0.7,6.2,1.2,6.9,4.4      s-1.2,6.2-4.4,6.9c-7.9,1.8-14.6,6.6-18.9,13.4s-5.7,15-3.9,22.9c0.7,3.1-1.2,6.2-4.4,6.9C120.1,185.1,119.7,185.2,119.3,185.2z      "/></g></g><g><g><path d="M165.9,117.6c-3.2,0-5.8-2.6-5.8-5.8c0-16.7-13.6-30.3-30.3-30.3c-3.2,0-5.8-2.6-5.8-5.8s2.6-5.8,5.8-5.8      c23.1,0,41.9,18.8,41.9,41.9C171.7,115,169.1,117.6,165.9,117.6z"/></g></g><g><g><path d="M99.5,130.8c-1.3,0-2.5-0.4-3.6-1.3c-2.5-2-2.9-5.6-0.9-8.2c7-8.8,17-14.3,28.1-15.5c11.1-1.3,22.1,1.9,30.9,8.9      c2.5,2,2.9,5.6,0.9,8.2c-2,2.5-5.6,2.9-8.2,0.9c-6.3-5.1-14.3-7.3-22.3-6.4c-8.1,0.9-15.3,4.9-20.3,11.2      C102.9,130,101.2,130.8,99.5,130.8z"/></g></g><g><path d="M165.9,157.4c-14.2,0-25.7-11.5-25.7-25.7s11.5-25.7,25.7-25.7s25.7,11.5,25.7,25.7S180.1,157.4,165.9,157.4z      M165.9,117.6c-7.8,0-14.1,6.3-14.1,14.1c0,7.8,6.3,14.1,14.1,14.1s14.1-6.3,14.1-14.1C180,123.9,173.7,117.6,165.9,117.6z"/></g></g><g><path d="M59.4,234.5c-3.2,0-5.8-2.6-5.8-5.8V31.9H40.5c-3.2,0-5.8-2.6-5.8-5.8s2.6-5.8,5.8-5.8h18.9c3.2,0,5.8,2.6,5.8,5.8v202.6    C65.2,231.9,62.6,234.5,59.4,234.5z"/></g><g><path d="M59.4,85.2H41.6c-3.2,0-5.8-2.6-5.8-5.8v-29c0-3.2,2.6-5.8,5.8-5.8h17.8c3.2,0,5.8,2.6,5.8,5.8v29    C65.2,82.6,62.6,85.2,59.4,85.2z M47.4,73.6h6.2V56.3h-6.2V73.6z"/></g><g><path d="M58.9,191.4H41c-3.2,0-5.8-2.6-5.8-5.8V97.3c0-3.2,2.6-5.8,5.8-5.8h17.8c3.2,0,5.8,2.6,5.8,5.8v88.3    C64.7,188.8,62.1,191.4,58.9,191.4z M46.8,179.8h6.2v-76.7h-6.2V179.8z"/></g><g><path d="M122,237.7h-19.1c-3.2,0-5.8-2.6-5.8-5.8v-16.2c0-3.2,2.6-5.8,5.8-5.8s5.8,2.6,5.8,5.8v10.4h7.5v-10.4    c0-3.2,2.6-5.8,5.8-5.8s5.8,2.6,5.8,5.8v16.2C127.8,235.1,125.2,237.7,122,237.7z"/></g><g><path d="M338.5,237.7h-19.1c-3.2,0-5.8-2.6-5.8-5.8v-16.2c0-3.2,2.6-5.8,5.8-5.8s5.8,2.6,5.8,5.8v10.4h7.5v-10.4    c0-3.2,2.6-5.8,5.8-5.8s5.8,2.6,5.8,5.8v16.2C344.3,235.1,341.7,237.7,338.5,237.7z"/></g><g><path d="M301.4,237.7H139.5c-3.2,0-5.8-2.6-5.8-5.8v-16.2c0-3.2,2.6-5.8,5.8-5.8s5.8,2.6,5.8,5.8v10.4h150.3v-10.4    c0-3.2,2.6-5.8,5.8-5.8c3.2,0,5.8,2.6,5.8,5.8v16.2C307.2,235.1,304.6,237.7,301.4,237.7z"/></g><g><path d="M75.7,65.4H59.4c-3.2,0-5.8-2.6-5.8-5.8s2.6-5.8,5.8-5.8h16.2c3.2,0,5.8,2.6,5.8,5.8S78.9,65.4,75.7,65.4z"/></g><g><path d="M75.7,207.3H61.7c-3.2,0-5.8-2.6-5.8-5.8s2.6-5.8,5.8-5.8h13.9c3.2,0,5.8,2.6,5.8,5.8S78.9,207.3,75.7,207.3z"/></g><g><path d="M559.5,221.5h-482c-3.2,0-5.8-2.6-5.8-5.8v-168c0-3.2,2.6-5.8,5.8-5.8h482c3.2,0,5.8,2.6,5.8,5.8v168    C565.3,218.9,562.7,221.5,559.5,221.5z M83.3,209.9h470.4V53.5H83.3V209.9z"/></g></g></svg>