<svg xmlns="http://www.w3.org/2000/svg" version="1.1" viewBox="-5.0 -10.0 110.0 110.0">
 <g fill-rule="evenodd">
  <path d="m7.2266 24.656h64.633v-15.699h-64.633zm65.609 1.9531h-66.586c-0.53906 0-0.97656-0.4375-0.97656-0.97656v-17.652c0-0.53906 0.4375-0.97656 0.97656-0.97656h66.586c0.53906 0 0.97266 0.4375 0.97266 0.97656v17.652c0 0.53906-0.4375 0.97656-0.97266 0.97656z"/>
  <path d="m41.5 20.074h11.566v-6.5391h-11.566zm12.543 1.9531h-13.52c-0.53906 0-0.97656-0.4375-0.97656-0.97656v-8.4922c0-0.53906 0.4375-0.97656 0.97656-0.97656h13.52c0.53906 0 0.97656 0.4375 0.97656 0.97656v8.4922c0 0.53906-0.4375 0.97656-0.97656 0.97656z"/>
  <path d="m36.078 14.152h-1.6758c-0.53906 0-0.97656-0.4375-0.97656-0.97656 0-0.53906 0.4375-0.97656 0.97656-0.97656h1.6758c0.53906 0 0.97656 0.4375 0.97656 0.97656 0 0.53906-0.4375 0.97656-0.97656 0.97656z"/>
  <path d="m30.5 14.152h-1.6758c-0.53906 0-0.97656-0.4375-0.97656-0.97656 0-0.53906 0.4375-0.97656 0.97656-0.97656h1.6758c0.54297 0 0.97656 0.4375 0.97656 0.97656 0 0.53906-0.43359 0.97656-0.97656 0.97656z"/>
  <path d="m24.926 14.152h-1.6758c-0.53906 0-0.97656-0.4375-0.97656-0.97656 0-0.53906 0.4375-0.97656 0.97656-0.97656h1.6758c0.53906 0 0.97656 0.4375 0.97656 0.97656 0 0.53906-0.4375 0.97656-0.97656 0.97656z"/>
  <path d="m19.352 14.152h-1.6758c-0.54297 0-0.97656-0.4375-0.97656-0.97656 0-0.53906 0.43359-0.97656 0.97656-0.97656h1.6758c0.53906 0 0.97656 0.4375 0.97656 0.97656 0 0.53906-0.4375 0.97656-0.97656 0.97656z"/>
  <path d="m13.777 14.152h-1.6758c-0.53906 0-0.97656-0.4375-0.97656-0.97656 0-0.53906 0.4375-0.97656 0.97656-0.97656h1.6758c0.53906 0 0.97656 0.4375 0.97656 0.97656 0 0.53906-0.4375 0.97656-0.97656 0.97656z"/>
  <path d="m36.078 17.781h-1.6758c-0.53906 0-0.97656-0.4375-0.97656-0.97656 0-0.53906 0.4375-0.97656 0.97656-0.97656h1.6758c0.53906 0 0.97656 0.4375 0.97656 0.97656 0 0.53906-0.4375 0.97656-0.97656 0.97656z"/>
  <path d="m30.5 17.781h-1.6758c-0.53906 0-0.97656-0.4375-0.97656-0.97656 0-0.53906 0.4375-0.97656 0.97656-0.97656h1.6758c0.54297 0 0.97656 0.4375 0.97656 0.97656 0 0.53906-0.43359 0.97656-0.97656 0.97656z"/>
  <path d="m24.926 17.781h-1.6758c-0.53906 0-0.97656-0.4375-0.97656-0.97656 0-0.53906 0.4375-0.97656 0.97656-0.97656h1.6758c0.53906 0 0.97656 0.4375 0.97656 0.97656 0 0.53906-0.4375 0.97656-0.97656 0.97656z"/>
  <path d="m19.352 17.781h-1.6758c-0.54297 0-0.97656-0.4375-0.97656-0.97656 0-0.53906 0.43359-0.97656 0.97656-0.97656h1.6758c0.53906 0 0.97656 0.4375 0.97656 0.97656 0 0.53906-0.4375 0.97656-0.97656 0.97656z"/>
  <path d="m13.777 17.781h-1.6758c-0.53906 0-0.97656-0.4375-0.97656-0.97656 0-0.53906 0.4375-0.97656 0.97656-0.97656h1.6758c0.53906 0 0.97656 0.4375 0.97656 0.97656 0 0.53906-0.4375 0.97656-0.97656 0.97656z"/>
  <path d="m36.078 21.414h-1.6758c-0.53906 0-0.97656-0.4375-0.97656-0.97656s0.4375-0.97656 0.97656-0.97656h1.6758c0.53906 0 0.97656 0.4375 0.97656 0.97656s-0.4375 0.97656-0.97656 0.97656z"/>
  <path d="m30.5 21.414h-1.6758c-0.53906 0-0.97656-0.4375-0.97656-0.97656s0.4375-0.97656 0.97656-0.97656h1.6758c0.54297 0 0.97656 0.4375 0.97656 0.97656s-0.43359 0.97656-0.97656 0.97656z"/>
  <path d="m24.926 21.414h-1.6758c-0.53906 0-0.97656-0.4375-0.97656-0.97656s0.4375-0.97656 0.97656-0.97656h1.6758c0.53906 0 0.97656 0.4375 0.97656 0.97656s-0.4375 0.97656-0.97656 0.97656z"/>
  <path d="m19.352 21.414h-1.6758c-0.54297 0-0.97656-0.4375-0.97656-0.97656s0.43359-0.97656 0.97656-0.97656h1.6758c0.53906 0 0.97656 0.4375 0.97656 0.97656s-0.4375 0.97656-0.97656 0.97656z"/>
  <path d="m13.777 21.414h-1.6758c-0.53906 0-0.97656-0.4375-0.97656-0.97656s0.4375-0.97656 0.97656-0.97656h1.6758c0.53906 0 0.97656 0.4375 0.97656 0.97656s-0.4375 0.97656-0.97656 0.97656z"/>
  <path d="m62.734 13.539c-1.8008 0-3.2656 1.4648-3.2656 3.2695 0 1.8008 1.4648 3.2695 3.2656 3.2695 1.8047 0 3.2695-1.4648 3.2695-3.2695 0-1.8047-1.4688-3.2695-3.2695-3.2695zm0 8.4922c-2.8789 0-5.2188-2.3438-5.2188-5.2227s2.3398-5.2227 5.2188-5.2227 5.2227 2.3438 5.2227 5.2227-2.3438 5.2227-5.2227 5.2227z"/>
  <path d="m62.734 16.5c-0.53906 0-0.97656-0.4375-0.97656-0.97656v-2.9609c0-0.53906 0.4375-0.97656 0.97656-0.97656s0.97656 0.4375 0.97656 0.97656v2.9609c0 0.53906-0.4375 0.97656-0.97656 0.97656z"/>
  <path d="m9.043 36.105c-0.53906 0-0.97656-0.4375-0.97656-0.97656v-9.4961c0-0.53906 0.4375-0.97656 0.97656-0.97656 0.53906 0 0.97656 0.4375 0.97656 0.97656v9.4961c0 0.53906-0.4375 0.97656-0.97656 0.97656zm61 0c-0.54297 0-0.97656-0.4375-0.97656-0.97656v-9.4961c0-0.53906 0.43359-0.97656 0.97656-0.97656 0.53906 0 0.97656 0.4375 0.97656 0.97656v9.4961c0 0.53906-0.4375 0.97656-0.97656 0.97656z"/>
  <path d="m62.738 53.758h-56.488c-0.53906 0-0.97656-0.4375-0.97656-0.97656v-17.652c0-0.53906 0.4375-0.97656 0.97656-0.97656h66.586c0.53906 0 0.97266 0.4375 0.97266 0.97656v15.055c0 0.53906-0.4375 0.97656-0.97656 0.97656-0.53906 0-0.97656-0.4375-0.97656-0.97656v-14.078h-64.633v15.699h55.512c0.53906 0 0.97656 0.4375 0.97656 0.97656s-0.4375 0.97656-0.97656 0.97656z"/>
  <path d="m41.5 47.223h11.566v-6.5391h-11.566zm12.543 1.9531h-13.52c-0.53906 0-0.97656-0.4375-0.97656-0.97656v-8.4922c0-0.53906 0.4375-0.97656 0.97656-0.97656h13.52c0.53906 0 0.97656 0.4375 0.97656 0.97656v8.4922c0 0.53906-0.4375 0.97656-0.97656 0.97656z"/>
  <path d="m36.078 41.301h-1.6758c-0.53906 0-0.97656-0.4375-0.97656-0.97656 0-0.53906 0.4375-0.97656 0.97656-0.97656h1.6758c0.53906 0 0.97656 0.4375 0.97656 0.97656 0 0.53906-0.4375 0.97656-0.97656 0.97656z"/>
  <path d="m30.5 41.301h-1.6758c-0.53906 0-0.97656-0.4375-0.97656-0.97656 0-0.53906 0.4375-0.97656 0.97656-0.97656h1.6758c0.54297 0 0.97656 0.4375 0.97656 0.97656 0 0.53906-0.43359 0.97656-0.97656 0.97656z"/>
  <path d="m24.926 41.301h-1.6758c-0.53906 0-0.97656-0.4375-0.97656-0.97656 0-0.53906 0.4375-0.97656 0.97656-0.97656h1.6758c0.53906 0 0.97656 0.4375 0.97656 0.97656 0 0.53906-0.4375 0.97656-0.97656 0.97656z"/>
  <path d="m19.352 41.301h-1.6758c-0.54297 0-0.97656-0.4375-0.97656-0.97656 0-0.53906 0.43359-0.97656 0.97656-0.97656h1.6758c0.53906 0 0.97656 0.4375 0.97656 0.97656 0 0.53906-0.4375 0.97656-0.97656 0.97656z"/>
  <path d="m13.777 41.301h-1.6758c-0.53906 0-0.97656-0.4375-0.97656-0.97656 0-0.53906 0.4375-0.97656 0.97656-0.97656h1.6758c0.53906 0 0.97656 0.4375 0.97656 0.97656 0 0.53906-0.4375 0.97656-0.97656 0.97656z"/>
  <path d="m36.078 44.93h-1.6758c-0.53906 0-0.97656-0.4375-0.97656-0.97656s0.4375-0.97656 0.97656-0.97656h1.6758c0.53906 0 0.97656 0.4375 0.97656 0.97656s-0.4375 0.97656-0.97656 0.97656z"/>
  <path d="m30.5 44.93h-1.6758c-0.53906 0-0.97656-0.4375-0.97656-0.97656s0.4375-0.97656 0.97656-0.97656h1.6758c0.54297 0 0.97656 0.4375 0.97656 0.97656s-0.43359 0.97656-0.97656 0.97656z"/>
  <path d="m24.926 44.93h-1.6758c-0.53906 0-0.97656-0.4375-0.97656-0.97656s0.4375-0.97656 0.97656-0.97656h1.6758c0.53906 0 0.97656 0.4375 0.97656 0.97656s-0.4375 0.97656-0.97656 0.97656z"/>
  <path d="m19.352 44.93h-1.6758c-0.54297 0-0.97656-0.4375-0.97656-0.97656s0.43359-0.97656 0.97656-0.97656h1.6758c0.53906 0 0.97656 0.4375 0.97656 0.97656s-0.4375 0.97656-0.97656 0.97656z"/>
  <path d="m13.777 44.93h-1.6758c-0.53906 0-0.97656-0.4375-0.97656-0.97656s0.4375-0.97656 0.97656-0.97656h1.6758c0.53906 0 0.97656 0.4375 0.97656 0.97656s-0.4375 0.97656-0.97656 0.97656z"/>
  <path d="m36.078 48.562h-1.6758c-0.53906 0-0.97656-0.4375-0.97656-0.97656 0-0.53906 0.4375-0.97656 0.97656-0.97656h1.6758c0.53906 0 0.97656 0.4375 0.97656 0.97656 0 0.53906-0.4375 0.97656-0.97656 0.97656z"/>
  <path d="m30.5 48.562h-1.6758c-0.53906 0-0.97656-0.4375-0.97656-0.97656 0-0.53906 0.4375-0.97656 0.97656-0.97656h1.6758c0.54297 0 0.97656 0.4375 0.97656 0.97656 0 0.53906-0.43359 0.97656-0.97656 0.97656z"/>
  <path d="m24.926 48.562h-1.6758c-0.53906 0-0.97656-0.4375-0.97656-0.97656 0-0.53906 0.4375-0.97656 0.97656-0.97656h1.6758c0.53906 0 0.97656 0.4375 0.97656 0.97656 0 0.53906-0.4375 0.97656-0.97656 0.97656z"/>
  <path d="m19.352 48.562h-1.6758c-0.54297 0-0.97656-0.4375-0.97656-0.97656 0-0.53906 0.43359-0.97656 0.97656-0.97656h1.6758c0.53906 0 0.97656 0.4375 0.97656 0.97656 0 0.53906-0.4375 0.97656-0.97656 0.97656z"/>
  <path d="m13.777 48.562h-1.6758c-0.53906 0-0.97656-0.4375-0.97656-0.97656 0-0.53906 0.4375-0.97656 0.97656-0.97656h1.6758c0.53906 0 0.97656 0.4375 0.97656 0.97656 0 0.53906-0.4375 0.97656-0.97656 0.97656z"/>
  <path d="m62.734 40.684c-1.8008 0-3.2656 1.4648-3.2656 3.2695 0 1.8008 1.4648 3.2695 3.2656 3.2695 1.8047 0 3.2695-1.4648 3.2695-3.2695 0-1.8008-1.4688-3.2695-3.2695-3.2695zm0 8.4922c-2.8789 0-5.2188-2.3438-5.2188-5.2227s2.3398-5.2227 5.2188-5.2227 5.2227 2.3438 5.2227 5.2227-2.3438 5.2227-5.2227 5.2227z"/>
  <path d="m62.734 43.648c-0.53906 0-0.97656-0.4375-0.97656-0.97656v-2.9609c0-0.53906 0.4375-0.97656 0.97656-0.97656s0.97656 0.4375 0.97656 0.97656v2.9609c0 0.53906-0.4375 0.97656-0.97656 0.97656z"/>
  <path d="m9.043 63.254c-0.53906 0-0.97656-0.4375-0.97656-0.97656v-9.4961c0-0.53906 0.4375-0.97656 0.97656-0.97656 0.53906 0 0.97656 0.4375 0.97656 0.97656v9.4961c0 0.53906-0.4375 0.97656-0.97656 0.97656z"/>
  <path d="m53.867 80.906h-47.617c-0.53906 0-0.97656-0.4375-0.97656-0.97656v-17.652c0-0.53906 0.4375-0.97656 0.97656-0.97656h47.617c0.53906 0 0.97656 0.4375 0.97656 0.97656 0 0.53906-0.4375 0.97656-0.97656 0.97656h-46.641v15.699h46.641c0.53906 0 0.97656 0.4375 0.97656 0.97656 0 0.53906-0.4375 0.97656-0.97656 0.97656z"/>
  <path d="m52.348 76.324h-11.824c-0.53906 0-0.97656-0.4375-0.97656-0.97656v-8.4922c0-0.53906 0.4375-0.97656 0.97656-0.97656h11.824c0.53906 0 0.97656 0.4375 0.97656 0.97656 0 0.53906-0.4375 0.97656-0.97656 0.97656h-10.848v6.5391h10.848c0.53906 0 0.97656 0.4375 0.97656 0.97656 0 0.53906-0.4375 0.97656-0.97656 0.97656z"/>
  <path d="m36.078 68.449h-1.6758c-0.53906 0-0.97656-0.4375-0.97656-0.97656 0-0.53906 0.4375-0.97656 0.97656-0.97656h1.6758c0.53906 0 0.97656 0.4375 0.97656 0.97656 0 0.53906-0.4375 0.97656-0.97656 0.97656z"/>
  <path d="m30.5 68.449h-1.6758c-0.53906 0-0.97656-0.4375-0.97656-0.97656 0-0.53906 0.4375-0.97656 0.97656-0.97656h1.6758c0.54297 0 0.97656 0.4375 0.97656 0.97656 0 0.53906-0.43359 0.97656-0.97656 0.97656z"/>
  <path d="m24.926 68.449h-1.6758c-0.53906 0-0.97656-0.4375-0.97656-0.97656 0-0.53906 0.4375-0.97656 0.97656-0.97656h1.6758c0.53906 0 0.97656 0.4375 0.97656 0.97656 0 0.53906-0.4375 0.97656-0.97656 0.97656z"/>
  <path d="m19.352 68.449h-1.6758c-0.54297 0-0.97656-0.4375-0.97656-0.97656 0-0.53906 0.43359-0.97656 0.97656-0.97656h1.6758c0.53906 0 0.97656 0.4375 0.97656 0.97656 0 0.53906-0.4375 0.97656-0.97656 0.97656z"/>
  <path d="m13.777 68.449h-1.6758c-0.53906 0-0.97656-0.4375-0.97656-0.97656 0-0.53906 0.4375-0.97656 0.97656-0.97656h1.6758c0.53906 0 0.97656 0.4375 0.97656 0.97656 0 0.53906-0.4375 0.97656-0.97656 0.97656z"/>
  <path d="m36.078 72.078h-1.6758c-0.53906 0-0.97656-0.4375-0.97656-0.97656 0-0.53906 0.4375-0.97656 0.97656-0.97656h1.6758c0.53906 0 0.97656 0.4375 0.97656 0.97656 0 0.53906-0.4375 0.97656-0.97656 0.97656z"/>
  <path d="m30.5 72.078h-1.6758c-0.53906 0-0.97656-0.4375-0.97656-0.97656 0-0.53906 0.4375-0.97656 0.97656-0.97656h1.6758c0.54297 0 0.97656 0.4375 0.97656 0.97656 0 0.53906-0.43359 0.97656-0.97656 0.97656z"/>
  <path d="m24.926 72.078h-1.6758c-0.53906 0-0.97656-0.4375-0.97656-0.97656 0-0.53906 0.4375-0.97656 0.97656-0.97656h1.6758c0.53906 0 0.97656 0.4375 0.97656 0.97656 0 0.53906-0.4375 0.97656-0.97656 0.97656z"/>
  <path d="m19.352 72.078h-1.6758c-0.54297 0-0.97656-0.4375-0.97656-0.97656 0-0.53906 0.43359-0.97656 0.97656-0.97656h1.6758c0.53906 0 0.97656 0.4375 0.97656 0.97656 0 0.53906-0.4375 0.97656-0.97656 0.97656z"/>
  <path d="m13.777 72.078h-1.6758c-0.53906 0-0.97656-0.4375-0.97656-0.97656 0-0.53906 0.4375-0.97656 0.97656-0.97656h1.6758c0.53906 0 0.97656 0.4375 0.97656 0.97656 0 0.53906-0.4375 0.97656-0.97656 0.97656z"/>
  <path d="m36.078 75.711h-1.6758c-0.53906 0-0.97656-0.4375-0.97656-0.97656s0.4375-0.97656 0.97656-0.97656h1.6758c0.53906 0 0.97656 0.4375 0.97656 0.97656s-0.4375 0.97656-0.97656 0.97656z"/>
  <path d="m30.5 75.711h-1.6758c-0.53906 0-0.97656-0.4375-0.97656-0.97656s0.4375-0.97656 0.97656-0.97656h1.6758c0.54297 0 0.97656 0.4375 0.97656 0.97656s-0.43359 0.97656-0.97656 0.97656z"/>
  <path d="m24.926 75.711h-1.6758c-0.53906 0-0.97656-0.4375-0.97656-0.97656s0.4375-0.97656 0.97656-0.97656h1.6758c0.53906 0 0.97656 0.4375 0.97656 0.97656s-0.4375 0.97656-0.97656 0.97656z"/>
  <path d="m19.352 75.711h-1.6758c-0.54297 0-0.97656-0.4375-0.97656-0.97656s0.43359-0.97656 0.97656-0.97656h1.6758c0.53906 0 0.97656 0.4375 0.97656 0.97656s-0.4375 0.97656-0.97656 0.97656z"/>
  <path d="m13.777 75.711h-1.6758c-0.53906 0-0.97656-0.4375-0.97656-0.97656s0.4375-0.97656 0.97656-0.97656h1.6758c0.53906 0 0.97656 0.4375 0.97656 0.97656s-0.4375 0.97656-0.97656 0.97656z"/>
  <path d="m84.766 72.078c-0.53906 0-0.97656-0.4375-0.97656-0.97656 0-6.0391-4.9141-10.957-10.957-10.957-2.0977 0-4.1367 0.59375-5.8945 1.7188-0.45312 0.28906-1.0586 0.15625-1.3477-0.29688-0.28906-0.45312-0.16016-1.0586 0.29688-1.3477 2.0742-1.3281 4.4766-2.0273 6.9492-2.0273 7.1172 0 12.91 5.7891 12.91 12.91 0 0.53906-0.4375 0.97656-0.97656 0.97656zm-11.934 11.93c-7.1172 0-12.91-5.7891-12.91-12.906 0-0.13281 0.003906-0.26172 0.007813-0.39062 0.015624-0.53906 0.47266-0.96094 1.0039-0.94531 0.53906 0.015625 0.96484 0.46484 0.94922 1.0039-0.003906 0.10938-0.007812 0.22266-0.007812 0.33203 0 6.0391 4.9141 10.957 10.957 10.957 2.1016 0 4.1367-0.59375 5.8945-1.7188 0.45703-0.28906 1.0586-0.15625 1.3477 0.29688 0.28906 0.45312 0.16016 1.0586-0.29688 1.3477-2.0742 1.3281-4.4766 2.0273-6.9492 2.0273z"/>
  <path d="m83.203 72.078 1.5586 2.7031 1.5586-2.7031h-3.1211zm1.5586 5.6328c-0.35156 0-0.67188-0.1875-0.84766-0.48828l-3.25-5.6328c-0.17578-0.30078-0.17578-0.67578 0-0.97656 0.17578-0.30078 0.49609-0.48828 0.84766-0.48828h6.5039c0.35156 0 0.67188 0.1875 0.84766 0.48828s0.17578 0.67578 0 0.97656l-3.25 5.6328c-0.17578 0.30078-0.5 0.48828-0.84766 0.48828z"/>
  <path d="m72.836 51.16c-10.996 0-19.941 8.9453-19.941 19.941 0 10.996 8.9453 19.941 19.941 19.941 10.996 0 19.941-8.9453 19.941-19.941 0-10.996-8.9453-19.941-19.941-19.941zm0 41.836c-12.074 0-21.895-9.8203-21.895-21.895 0-12.074 9.8242-21.895 21.895-21.895 12.07 0 21.895 9.8203 21.895 21.895 0 12.074-9.8242 21.895-21.895 21.895z"/>
  <path d="m59.34 69.945h3.1211l-1.5586-2.7031-1.5586 2.7031zm4.8125 1.9531h-6.5039c-0.35156 0-0.67188-0.1875-0.84766-0.48828-0.17578-0.30078-0.17578-0.67578 0-0.97656l3.25-5.6328c0.17578-0.30078 0.5-0.48828 0.84766-0.48828 0.35156 0 0.67187 0.1875 0.84766 0.48828l3.25 5.6328c0.17578 0.30078 0.17578 0.67578 0 0.97656-0.17578 0.30078-0.49609 0.48828-0.84766 0.48828z"/>
 </g></svg>