<svg xmlns="http://www.w3.org/2000/svg" version="1.1" viewBox="-5.0 -10.0 110.0 110.0">
 <g>
  <path d="m71.555 14.352h-43.109c-9.8125 0-17.793 7.9844-17.793 17.793v35.715c0 9.8125 7.9844 17.793 17.793 17.793h43.113c9.8125 0 17.793-7.9844 17.793-17.793v-35.715c0-9.8125-7.9844-17.793-17.797-17.793zm14.094 53.508c0 7.7734-6.3203 14.094-14.094 14.094h-43.109c-7.7734 0-14.094-6.3203-14.094-14.094v-35.715c0-7.7734 6.3242-14.094 14.094-14.094h43.113c7.7734 0 14.094 6.3242 14.094 14.094v35.715z"/>
  <path d="m45.977 62.809-7.4609-4.7773-14.621 15.223h55.512l-19.699-25.52z"/>
  <path d="m39.691 40.422c0 4.0273-3.2656 7.293-7.293 7.293-4.0273 0-7.293-3.2656-7.293-7.293s3.2656-7.2891 7.293-7.2891c4.0273 0 7.293 3.2617 7.293 7.2891"/>
 </g></svg>