<svg xmlns="http://www.w3.org/2000/svg" version="1.1" viewBox="-25.0 -20.0 140.0 140.0">
 <g>
  <path d="m52.504 37.676c-1.1016-3.207-4.0078-5.5117-7.2148-5.9102-0.70312-2.0039-2.8047-3.707-4.9102-3.707h-1.9023v-4.5078h3.4062c0.80078 0 1.5039-0.70312 1.5039-1.5039v-10.023c0-0.80078-0.70312-1.5039-1.5039-1.5039h-8.7188c-0.80078 0-1.5039 0.70312-1.5039 1.5039v10.02c0 0.80078 0.70312 1.5039 1.5039 1.5039h3.3047l0.003906 4.5078h-1.7031c-2.2031 0-4.207 1.7031-4.9102 3.707-3.3047 0.5-6.1133 2.8047-7.2148 6.0117-3.1055 0.40234-3.1055 1.0039-3.1055 1.9023v55.91c0 1.2031 0 4.1094 18.238 4.1094 18.238 0 18.238-3.0078 18.238-4.1094l-0.003906-55.906c0-0.90234 0-1.6055-3.5078-2.0039zm-17.836-24.148h5.7109v7.0156h-5.7109zm0.10156 17.637h5.6094c0.80078 0 1.7031 0.80078 2.0039 1.6016h-9.6211c0.30469-0.80078 1.207-1.6016 2.0078-1.6016zm-3.6055 3.6055h12.824c2.1055 0 4.0078 1.1016 5.0117 2.707-2.6055-0.10156-6.2109-0.19922-11.223-0.19922-5.2109 0-8.918 0.10156-11.625 0.19922 1.1016-1.6055 2.9062-2.707 5.0117-2.707zm21.844 60.422c-3.5078 2.0039-26.953 2.0039-30.461 0v-54.41c4.8086-0.70312 25.652-0.70312 30.461 0z"/>
  <path d="m50.199 90.883c-0.30078 0-0.5 0.10156-0.70312 0.30078-2.3047 0.80078-21.344 0.80078-23.648 0-0.19922-0.19922-0.40234-0.30078-0.70312-0.30078-0.5 0-0.90234 0.40234-0.90234 0.90234 0 1.0039 0.90234 1.3008 4.7109 1.6016 2.3047 0.10156 5.4102 0.19922 8.7188 0.19922 13.426 0 13.426-1.0039 13.426-1.8047 0.003906-0.5-0.39453-0.89844-0.89844-0.89844z"/>
  <path d="m24.148 43.887c0 0.5 0.40234 0.90234 0.90234 0.90234 0.19922 0 0.40234 0 0.5-0.10156 2.1055-0.40234 22.043-0.40234 24.148 0 0.19922 0.10156 0.30078 0.10156 0.5 0.10156 0.5 0 0.90234-0.40234 0.90234-0.90234 0-1.0039-0.10156-1.3008-13.527-1.3008s-13.426 0.30078-13.426 1.3008z"/>
  <path d="m37.574 15.934c-0.60156 0-1.0039 0.40234-1.0039 1.0039l0.003907 0.097656c0 0.60156 0.40234 1.0039 1.0039 1.0039s1.0039-0.40234 1.0039-1.0039v-0.10156c-0.003906-0.60156-0.40625-1-1.0078-1z"/>
  <path d="m92.285 18.637c0-4.207-2.6055-7.9141-6.2109-9.5195-0.90234-3.9062-4.0078-7.2148-8.0156-8.0156-0.80078-0.19922-1.6016 0.30078-1.8047 1.1016-0.20312 0.80469 0.30078 1.6055 1.1016 1.8047 2.4062 0.5 4.3086 2.1055 5.2109 4.3086h-0.30078c-0.80078 0-1.5039 0.70312-1.5039 1.5039 0 0.80078 0.70312 1.5039 1.5039 1.5039 3.8086 0.10156 7.0156 3.4062 7.0156 7.3164 0 3.8086-2.9062 7.0156-6.7148 7.3164-0.90234 0-1.5039 0.80078-1.4023 1.6016 0.10156 0.70312 0.60156 1.3008 1.3008 1.4023-0.90234 2.2031-2.8047 4.0078-5.2109 4.5078-0.80078 0.19922-1.3008 1.0039-1.1016 1.8047 0.19922 0.70312 0.80078 1.2031 1.5039 1.2031h0.19922c4.1094-1.0039 7.2148-4.207 8.0156-8.3164 3.8086-1.6055 6.4141-5.3164 6.4141-9.5234z"/>
  <path d="m75.652 16.031h-27.656c-0.60156 0-1.0039 0.40234-1.0039 1.0039 0 0.60156 0.40234 1.0039 1.0039 1.0039h27.656c0.60156 0 1.0039-0.40234 1.0039-1.0039-0.003906-0.60156-0.40234-1.0039-1.0039-1.0039z"/>
  <path d="m76.652 26.555c0.10156-0.60156-0.30078-1.1016-0.80078-1.2031l-27.656-5.5117c-0.60156-0.10156-1.1016 0.30078-1.2031 0.80078-0.10156 0.60156 0.30078 1.1016 0.80078 1.2031l27.656 5.5117h0.19922c0.50391 0 0.90625-0.30078 1.0039-0.80078z"/>
  <path d="m47.996 14.328h0.19922l27.656-5.5117c0.60156-0.10156 0.90234-0.60156 0.80078-1.2031-0.10156-0.60156-0.70312-0.90234-1.2031-0.80078l-27.656 5.5117c-0.60156 0.10156-0.90234 0.70312-0.80078 1.2031 0.10156 0.5 0.50391 0.80078 1.0039 0.80078z"/>
 </g></svg>