<svg xmlns:inkscape="http://www.inkscape.org/namespaces/inkscape" xmlns:sodipodi="http://sodipodi.sourceforge.net/DTD/sodipodi-0.dtd" xmlns="http://www.w3.org/2000/svg" xmlns:svg="http://www.w3.org/2000/svg" version="1.1" x="0px" y="0px" 
viewBox="-20 -20 170 170" enable-background="new 0 0 128 128" xml:space="preserve"><g><path d="m 21.5945,2.25 c -3.17,0 -5.75,2.58 -5.75,5.75 v 2.11914 h -2.80078 c -2.38,0 -4.3086004,1.94055 -4.3086004,4.31055 v 6.13086 c 0,2.38 1.9386004,4.30859 4.3086004,4.30859 H 15.8445 V 27 c 0,3.17 2.58,5.75 5.75,5.75 h 8.55078 v 14.81055 c 0,4.18 3.39836,7.57031 7.56836,7.57031 4.17,0 7.57031,-3.40031 7.57031,-7.57031 v -6.86133 c 0,-2.25 1.83031,-4.06836 4.07031,-4.06836 2.24,0 4.07032,1.82836 4.07032,4.06836 v 2.4707 c 0,4.18 3.40031,7.57031 7.57031,7.57031 4.17,0 7.57031,-3.40031 7.57031,-7.57031 V 32.75 h 36.0293 c 3.17,0 5.75,-2.58 5.75,-5.75 v -7.75 h 3.2207 c 1.22,0 2.21875,0.9907 2.21875,2.2207 v 17.93946 c 0,0.94 -0.60047,1.77984 -1.48047,2.08984 L 65.15504,58.78906 c -2.28,0.8 -3.82031,2.97063 -3.82031,5.39063 v 8.74023 h -5.39062 c -0.97,0 -1.75,0.78 -1.75,1.75 v 7.49024 h -1.41016 c -0.97,0 -1.75,0.78 -1.75,1.75 v 29.80078 c 0,6.64 5.40102,12.03906 12.04102,12.03906 6.64,0 12.03906,-5.39906 12.03906,-12.03906 V 83.91016 c 0,-0.97 -0.78,-1.75 -1.75,-1.75 h -1.41016 v -7.49024 c 0,-0.97 -0.78,-1.75 -1.75,-1.75 H 64.8152 v -8.74023 c 0,-0.94 0.59852,-1.77985 1.47852,-2.08985 l 49.15039,-17.28906 c 2.28,-0.8 3.82031,-2.97062 3.82031,-5.39062 V 21.4707 c 0.04,-3.16 -2.52969,-5.7207 -5.67969,-5.7207 h -3.2207 V 8 c 0,-3.17 -2.58,-5.75 -5.75,-5.75 z m 0.0195,3.5 h 83.01953 c 1.24,0 2.25,1.01 2.25,2.25 v 19 h -0.0195 c 0,1.24 -1.01,2.25 -2.25,2.25 h -36.0293 v -1.41016 c 0,-1.15 0.93985,-2.08984 2.08985,-2.08984 0.97,0 1.75,-0.78 1.75,-1.75 0,-0.97 -0.78,-1.75 -1.75,-1.75 -3.08,0 -5.58985,2.50984 -5.58985,5.58984 V 31 43.16992 c 0,2.25 -1.83031,4.07031 -4.07031,4.07031 -2.24,0 -4.07031,-1.83031 -4.07031,-4.07031 v -2.4707 c 0,-4.18 -3.40032,-7.56836 -7.57031,-7.56836 -4.17,0 -7.57032,3.39836 -7.57032,7.56836 v 6.86133 c 0,2.25 -1.82836,4.07031 -4.06836,4.07031 -2.24,0 -4.07031,-1.83031 -4.07031,-4.07031 V 31 26.66992 c 0,-4.11 -3.34117,-7.44922 -7.45117,-7.44922 -0.97,0 -1.75,0.78 -1.75,1.75 0,0.97 0.78,1.75 1.75,1.75 2.18,0 3.95117,1.76922 3.95117,3.94922 V 29.25 h -8.55078 c -1.24,0 -2.25,-1.01 -2.25,-2.25 V 23.13086 11.86914 8 c 0,-1.24 1.01,-2.25 2.25,-2.25 z m -8.57031,7.88086 h 2.80078 v 7.75976 h -2.80078 v -0.01 c -0.45,0 -0.8086,-0.37055 -0.8086,-0.81055 v -6.13086 c 0,-0.45 0.3686,-0.80859 0.8086,-0.80859 z m 44.66992,62.78906 h 10.77148 v 5.74024 H 57.71361 Z m -3.14844,9.24024 h 1.41016 14.26953 1.41015 v 28.05078 h -0.01 c 0,4.71 -3.83102,8.53906 -8.54102,8.53906 -4.71,0 -8.53906,-3.82906 -8.53906,-8.53906 z m 8.53906,21.43945 c -3.2,0 -5.81054,2.61055 -5.81054,5.81055 0,3.2 2.61054,5.81054 5.81054,5.81054 3.2,0 5.81055,-2.61054 5.81055,-5.81054 0,-3.2 -2.61055,-5.81055 -5.81055,-5.81055 z m 0,3.5 c 1.27,0 2.31055,1.04055 2.31055,2.31055 0,1.27 -1.04055,2.31054 -2.31055,2.31054 -1.27,0 -2.31054,-1.04054 -2.31054,-2.31054 0,-1.27 1.04054,-2.31055 2.31054,-2.31055 z"/></g></svg>