<svg xmlns="http://www.w3.org/2000/svg" xmlns:xlink="http://www.w3.org/1999/xlink" version="1.1" x="0px" y="0px" 
viewBox="-10 -10 70 70" style="enable-background:new 0 0 48 48;" xml:space="preserve"><path d="M46.894,33.935c-0.129-4.999-0.136-11.799-0.241-16.742c0.078-2.109-1.579-4.271-3.711-4.488  c0.001-2.72,0.002-4.707,0-4.711c0-0.552-0.448-1-1-1C28.608,7.024,15.282,7.08,1.961,7.241C1.538,7.249,1.202,7.598,1.21,8.021  l0.313,17.192c0.026,2.189,0.37,3.365,0.649,2.846c0.369,0.118,1.259,0.25,2.791,0.397c9.227,0.094,27.797,0.343,37.025,0.51  c0.519,0.009,0.946-0.411,0.946-0.931c-0.001-0.003,0-1.748,0.001-4.2c0.971,0.354,1.68,0.89,2.063,1.672  c-0.042,1.455-0.076,2.778-0.09,3.591c-0.06,0.834,0.078,2.302-0.222,3.061c-0.42,1.309-1.787,1.952-3.089,1.832  c-9.813-0.051-19.721,0.018-29.489,0.659C9.772,28.64,0.768,30.861,0.958,37.134c0.292,6.602,8.922,7.757,11.053,2.397  c9.362,0.512,18.724,0.436,28.093,0.46C43.988,40.386,47.434,38.197,46.894,33.935z M21.323,27.13  C12.547,27.22,3.946,27.41,2.268,27.795c0.46-1.216,0.378-17.304,0.49-18.989c6.199,0.074,12.397,0.122,18.594,0.15  C20.727,15.011,20.689,21.075,21.323,27.13z M22.396,27.12c0.626-6.049,0.668-12.107,0.046-18.157  c6.17,0.026,12.338,0.032,18.504,0.029l0.092,18.074C38.361,27.052,30.425,27.046,22.396,27.12z M11.459,37.499  c-0.436,2.187-2.455,3.91-4.665,3.682c-2.076-0.141-3.85-2.053-3.838-4.093c0.053-5.126,7.206-5.82,8.545-0.805  c0.057,0.275,0.175,0.464,0.308,0.579C11.662,36.963,11.526,37.164,11.459,37.499z M41.636,38.017  c-9.749-0.048-19.622,0.027-29.35,0.604c0.098-0.466,0.323-1.345-0.024-1.704c0.288-0.165,0.254-0.963,0.119-1.35  c4.653,0.321,9.297,0.095,13.899,0.279c5.413,0.071,10.855,0.198,16.27,0.106c0.966-0.072,1.837-0.472,2.536-1.075  C45.145,36.693,43.411,38.066,41.636,38.017z M45.27,17.192l-0.067,1.701c-0.034,1.056-0.094,2.909-0.151,4.797  c-0.619-0.489-1.353-0.815-2.116-0.883c0.001-2.807,0.003-6.263,0.005-9.136C44.469,14.162,45.411,15.609,45.27,17.192z   M17.046,12.702c-4.393-5.152-13.386-1.159-12.937,5.567c0.078,6.436,8.366,10.162,13.092,5.684  c3.221-2.77,3.409-8.247,0.282-11.099C17.386,12.778,17.211,12.708,17.046,12.702z M15.342,12.569  c0.416,0.166,0.94,0.594,1.321,0.655c0.592,1.72-0.26,3.348-2.087,3.252c-0.101-0.167-0.215-0.325-0.345-0.47  C15.408,15.231,15.752,13.778,15.342,12.569z M6.156,18.948c-0.121-0.588-0.158-1.231-0.073-1.828  c0.998-0.963,2.374-0.756,3.214,0.391c-0.01,0.131-0.005,0.26,0.004,0.39C8.094,17.531,6.851,18.029,6.156,18.948z M10.323,19.708  c-1.295,0.52-1.922,1.817-1.769,3.078c-0.512-0.365-0.97-0.817-1.353-1.353c0.115-1.472,1.359-2.238,2.912-1.769  c0.047,0.017,0.133-0.016,0.23-0.071C10.33,19.632,10.324,19.669,10.323,19.708z M10.457,15.535  c-0.132,0.09-0.281,0.173-0.385,0.304C9.4,14.8,8.166,14.376,7.049,14.581c0.356-0.533,0.79-1.014,1.29-1.418  C9.708,13.154,10.593,14.147,10.457,15.535z M11.007,23.823c-0.828-1.071-0.609-2.391,0.643-3.177  c0.089,0.02,0.18,0.029,0.272,0.041c-0.401,1.236,0.131,2.513,1.091,3.203C12.346,23.973,11.668,23.948,11.007,23.823z   M11.008,19.175c-0.072-0.023-0.173-0.001-0.281,0.043c0.073-0.123,0.109-0.255,0.067-0.352c-0.593-1.38,1.025-2.52,1.957-1.581  C13.652,18.311,12.391,19.763,11.008,19.175z M12.725,15.085c-0.176-0.045-0.357-0.07-0.541-0.078  c0.226-1.255-0.403-2.428-1.397-3.042c0.597-0.132,1.212-0.181,1.826-0.148C13.782,12.73,13.855,14.128,12.725,15.085z   M15.795,22.811c-1.472,0.108-2.439-0.964-2.199-2.453c0.118-0.068,0.23-0.152,0.34-0.241c0.676,1.166,2.056,1.595,3.234,1.291  C16.781,21.971,16.315,22.438,15.795,22.811z M18.21,16.476c0.117,0.651,0.131,1.312,0.052,1.961  c-0.884,1.357-2.377,1.457-3.373,0.239c0.048-0.166,0.081-0.331,0.095-0.497C16.372,18.437,17.643,17.637,18.21,16.476z   M26.743,11.939c-3.291,2.769-3.376,8.636,0,11.26c0.052,0.202,0.227,0.474,0.605,0.816c4.998,4.095,12.995,0.454,12.642-6.196  C39.971,11.272,31.595,7.472,26.743,11.939z M35.43,13.174c0.519,0.364,0.985,0.796,1.376,1.293  c-0.085,1.495-1.352,2.346-2.923,1.872c-0.038-0.014-0.099-0.001-0.172,0.033c0.003-0.037,0.003-0.074-0.005-0.109  C34.989,15.737,35.595,14.426,35.43,13.174z M25.811,19.493c-0.127-0.65-0.162-1.314-0.099-1.969  c0.898-1.262,2.425-1.347,3.429-0.22c-0.056,0.179-0.092,0.356-0.109,0.534c-0.132-0.028-0.252-0.042-0.347-0.039  C27.394,17.681,26.342,18.461,25.811,19.493z M28.787,23.642c-0.504-0.179-1.076-0.652-1.547-0.776  c0.077-0.16,0.106-0.33,0.072-0.401c-0.528-1.704,0.471-3.023,2.136-2.917c0.1,0.162,0.213,0.314,0.341,0.456  C28.584,20.831,28.292,22.395,28.787,23.642z M30.444,15.656c-0.123,0.068-0.238,0.15-0.35,0.24  c-0.719-1.183-2.16-1.589-3.383-1.245c0.329-0.505,0.711-0.977,1.196-1.361c0.03-0.026,0.064-0.044,0.095-0.069  C29.609,12.968,30.66,14.07,30.444,15.656z M31.536,24.283c-1.225-0.865-1.347-2.389-0.253-3.367  c0.176,0.045,0.357,0.071,0.541,0.081c-0.245,1.311,0.452,2.532,1.517,3.13C32.754,24.263,32.142,24.305,31.536,24.283z   M32.74,18.87c-1.047,0.67-2.316-0.532-1.54-1.598c0.248-0.433,1.079-0.684,1.824-0.382c0.059,0.02,0.135,0.018,0.22-0.007  c-0.019,0.077-0.035,0.156-0.007,0.218C33.519,17.837,33.211,18.596,32.74,18.87z M32.285,15.377  c-0.06-0.013-0.122-0.013-0.184-0.022c0.43-1.326-0.186-2.681-1.255-3.36c0.684-0.088,1.377-0.059,2.053,0.081  C33.826,13.159,33.639,14.585,32.285,15.377z M35.916,22.836c-1.479,0.13-2.521-0.862-2.364-2.357  c0.126-0.09,0.274-0.168,0.38-0.293c0.721,1.098,2.056,1.499,3.226,1.212C36.822,21.936,36.403,22.422,35.916,22.836z   M38.035,18.803c-1.003,1.052-2.426,0.901-3.315-0.275c0.013-0.142,0.015-0.282,0.007-0.423c1.263,0.361,2.533-0.228,3.208-1.225  C38.059,17.496,38.091,18.173,38.035,18.803z"/></svg>