<svg xmlns="http://www.w3.org/2000/svg" version="1.1" viewBox="-5.0 -10.0 110.0 110.0">
 <g>
  <path d="m92.5 62.234h-85c-0.77344 0-1.3984-0.62891-1.3984-1.4023v-28.332c0-0.77344 0.625-1.3984 1.3984-1.3984h85c0.77344 0 1.3984 0.625 1.3984 1.3984v28.332c0 0.37109-0.14453 0.72656-0.41016 0.99219-0.26172 0.26172-0.61719 0.41016-0.98828 0.41016zm-83.602-2.8008h82.203v-25.535h-82.203z"/>
  <path d="m35.832 68.898h-22.664c-0.77344 0-1.4023-0.625-1.4023-1.3984v-6.668c0-0.77344 0.62891-1.3984 1.4023-1.3984h22.664c0.77344 0 1.4023 0.625 1.4023 1.3984v6.668c0 0.37109-0.14844 0.72656-0.41016 0.98828-0.26562 0.26562-0.62109 0.41016-0.99219 0.41016zm-21.266-2.7969h19.867v-3.8672h-19.867z"/>
  <path d="m86.832 68.898h-45.332c-0.77344 0-1.3984-0.625-1.3984-1.3984v-6.668c0-0.77344 0.625-1.3984 1.3984-1.3984h45.332c0.77344 0 1.4023 0.625 1.4023 1.3984v6.668c0 0.37109-0.14844 0.72656-0.41016 0.98828-0.26562 0.26562-0.62109 0.41016-0.99219 0.41016zm-43.934-2.7969h42.535v-3.8672h-42.535z"/>
  <path d="m23.082 56.965h-8.5c-0.77344 0-1.3984-0.62891-1.3984-1.4023v-17c0-0.77344 0.625-1.3984 1.3984-1.3984h8.5c0.77344 0 1.4023 0.625 1.4023 1.3984v17c0 0.37109-0.14844 0.73047-0.41016 0.99219-0.26562 0.26172-0.62109 0.41016-0.99219 0.41016zm-7.1016-2.8008h5.6992v-14.199h-5.6992z"/>
  <path d="m38.668 56.965h-8.5c-0.77344 0-1.4023-0.62891-1.4023-1.4023v-17c0-0.77344 0.62891-1.3984 1.4023-1.3984h8.5c0.77344 0 1.3984 0.625 1.3984 1.3984v17c0 0.37109-0.14844 0.73047-0.41016 0.99219-0.26172 0.26172-0.61719 0.41016-0.98828 0.41016zm-7.1016-2.8008h5.6992v-14.199h-5.6992z"/>
  <path d="m54.25 56.965h-8.5c-0.77344 0-1.3984-0.62891-1.3984-1.4023v-17c0-0.77344 0.625-1.3984 1.3984-1.3984h8.5c0.77344 0 1.3984 0.625 1.3984 1.3984v17c0 0.37109-0.14453 0.73047-0.41016 0.99219-0.26172 0.26172-0.61719 0.41016-0.98828 0.41016zm-7.1016-2.8008h5.6992v-14.199h-5.6992z"/>
  <path d="m69.832 56.965h-8.5c-0.77344 0-1.3984-0.62891-1.3984-1.4023v-17c0-0.77344 0.625-1.3984 1.3984-1.3984h8.5c0.77344 0 1.4023 0.625 1.4023 1.3984v17c0 0.37109-0.14844 0.73047-0.41016 0.99219-0.26562 0.26172-0.62109 0.41016-0.99219 0.41016zm-7.1016-2.8008h5.6992v-14.199h-5.6992z"/>
  <path d="m85.418 56.965h-8.5c-0.77344 0-1.4023-0.62891-1.4023-1.4023v-17c0-0.77344 0.62891-1.3984 1.4023-1.3984h8.5c0.77344 0 1.3984 0.625 1.3984 1.3984v17c0 0.37109-0.14844 0.73047-0.41016 0.99219-0.26172 0.26172-0.61719 0.41016-0.98828 0.41016zm-7.1016-2.8008h5.6992v-14.199h-5.6992z"/>
 </g></svg>