<svg xmlns="http://www.w3.org/2000/svg" version="1.1" viewBox="-5.0 -10.0 110.0 110.0">
 <g>
  <path d="m69.898 29.082h-39.797c-0.5625 0-1.0195 0.45703-1.0195 1.0195v39.797c0 0.26953 0.10547 0.53125 0.29688 0.72266s0.45312 0.29688 0.72266 0.29688h39.797c0.26953 0 0.53125-0.10547 0.72266-0.29688s0.29688-0.45312 0.29688-0.72266v-27.043c0-0.5625-0.45703-1.0195-1.0195-1.0195s-1.0195 0.45703-1.0195 1.0195v26.023h-37.754v-37.754h37.754v2.5469c0 0.56641 0.45703 1.0234 1.0195 1.0234s1.0195-0.45703 1.0195-1.0234v-3.5703c0-0.26953-0.10547-0.53125-0.29688-0.72266s-0.45312-0.29688-0.72266-0.29688z"/>
  <path d="m87.754 35.715c0.56641 0 1.0234-0.45703 1.0234-1.0195 0-0.56641-0.45703-1.0234-1.0234-1.0234h-8.6719v-11.734c0-0.26953-0.10938-0.52734-0.30078-0.71875s-0.44922-0.30078-0.71875-0.30078h-11.734v-8.6719c0-0.56641-0.45703-1.0234-1.0234-1.0234-0.5625 0-1.0195 0.45703-1.0195 1.0234v8.6719h-13.266v-8.6719c0-0.56641-0.45703-1.0234-1.0195-1.0234s-1.0195 0.45703-1.0195 1.0234v8.6719h-13.266v-8.6719c0-0.56641-0.45703-1.0234-1.0195-1.0234-0.56641 0-1.0234 0.45703-1.0234 1.0234v8.6719h-11.734c-0.5625 0-1.0195 0.45703-1.0195 1.0195v11.734h-8.6719c-0.56641 0-1.0234 0.45703-1.0234 1.0234 0 0.5625 0.45703 1.0195 1.0234 1.0195h8.6719v13.266h-8.6719c-0.56641 0-1.0234 0.45703-1.0234 1.0195s0.45703 1.0195 1.0234 1.0195h8.6719v13.266h-8.6719c-0.56641 0-1.0234 0.45703-1.0234 1.0195 0 0.56641 0.45703 1.0234 1.0234 1.0234h8.6719v11.734c0 0.26953 0.10938 0.52734 0.30078 0.71875s0.44922 0.30078 0.71875 0.30078h11.734v8.6719c0 0.56641 0.45703 1.0234 1.0234 1.0234 0.5625 0 1.0195-0.45703 1.0195-1.0234v-8.6719h13.266v8.6719c0 0.56641 0.45703 1.0234 1.0195 1.0234s1.0195-0.45703 1.0195-1.0234v-8.6719h13.266v8.6719c0 0.56641 0.45703 1.0234 1.0195 1.0234 0.56641 0 1.0234-0.45703 1.0234-1.0234v-8.6719h11.734c0.26953 0 0.52734-0.10938 0.71875-0.30078s0.30078-0.44922 0.30078-0.71875v-11.734h8.6719c0.56641 0 1.0234-0.45703 1.0234-1.0234 0-0.5625-0.45703-1.0195-1.0234-1.0195h-8.6719v-13.266h8.6719c0.56641 0 1.0234-0.45703 1.0234-1.0195s-0.45703-1.0195-1.0234-1.0195h-8.6719v-13.266zm-10.715 41.324h-54.082v-54.082h54.082z"/>
  <path d="m41.09 45.047c1.2852 0.085937 2.5508 0.36719 3.7461 0.83984v-1.5742c-1.2109-0.32031-2.4609-0.49219-3.7148-0.51953-1.6055-0.10156-3.1758 0.49219-4.3164 1.625-1.0898 1.2734-1.6367 2.9219-1.5312 4.5938-0.10547 1.6641 0.42969 3.3047 1.5039 4.582 1.1211 1.1211 2.6719 1.7109 4.2578 1.6133 1.3281 0.011719 2.6367-0.30078 3.8203-0.90625v-1.4336c-1.0938 0.63672-2.3281 0.98828-3.5898 1.0312-1.1719 0.054687-2.3086-0.42188-3.0859-1.3008-0.79688-1.0156-1.1953-2.2852-1.1211-3.5742-0.082032-1.3086 0.29297-2.6055 1.0547-3.6719 0.73047-0.88281 1.8359-1.3672 2.9766-1.3047z"/>
  <path d="m50.512 44.086h-3.2227v11.832h1.6641v-4.7031h0.74219c1.2695 0.074218 2.5273-0.30469 3.5469-1.0703 0.86328-0.73438 1.3359-1.8281 1.2773-2.9609 0.042969-0.74219-0.17969-1.4766-0.62891-2.0664-0.32422-0.38672-0.75391-0.66797-1.2344-0.80469-0.70312-0.17578-1.4258-0.25-2.1445-0.22656zm1.4297 5.1719h-0.003906c-0.66016 0.49609-1.4805 0.73828-2.3086 0.6875h-0.67969v-4.6016h1.0312c0.74219-0.0625 1.4805 0.097656 2.1289 0.45312 0.45703 0.36328 0.69922 0.92969 0.64453 1.5117 0.042969 0.73828-0.25781 1.457-0.81641 1.9492z"/>
  <path d="m56.242 44.086v7.4492c-0.10938 1.2695 0.26953 2.5352 1.0586 3.5391 0.89062 0.82812 2.0898 1.2383 3.3008 1.1367 0.97266 0.054687 1.9336-0.22266 2.7266-0.78516 0.49219-0.375 0.875-0.88281 1.0938-1.4609 0.23438-0.77344 0.33984-1.5742 0.30859-2.3828v-7.4961h-1.4844v7.5195c0.082031 0.90234-0.125 1.8047-0.58594 2.5859-0.50391 0.55469-1.2422 0.83984-1.9883 0.76172-0.78516 0.070313-1.5625-0.23047-2.0938-0.80859-0.50391-0.76953-0.73438-1.6797-0.66016-2.5938v-7.4648z"/>
 </g></svg>