<svg xmlns="http://www.w3.org/2000/svg" data-name="Layer 1" viewBox="-10 -10 120 120" x="0px" y="0px"><path d="m68.243,19.066h-6.754c-.436-4.839-3.707-8.612-7.669-8.612h-7.23c-3.962,0-7.233,3.774-7.669,8.612h-7.165c-6.716,0-12.179,6.006-12.179,13.389,0,.607.492,1.099,1.098,1.099,0,0,0,0,0,0h4.456l2.362,45.948c.155,3.012.708,5.26,1.691,6.871,1.285,2.106,3.301,3.173,5.993,3.173h29.643c3.452,0,7.644-1.716,8.007-9.891l2.047-46.102h4.449s0,0,0,0c.607,0,1.098-.492,1.098-1.099,0-7.383-5.464-13.389-12.18-13.389Zm-21.653-6.416h7.23c2.72,0,5.051,2.842,5.456,6.416h-18.142c.405-3.573,2.735-6.416,5.456-6.416Zm-14.834,8.612h8.21s0,0,0,0,0,0,0,0h20.475s0,0,0,0,0,0,0,0h7.799c5.174,0,9.439,4.436,9.933,10.094H21.824c.494-5.657,4.759-10.094,9.933-10.094Zm33.065,66.087h-29.643c-3.561,0-5.203-2.381-5.49-7.961l-2.356-45.835h45.344l-2.043,46.004c-.346,7.792-4.46,7.792-5.812,7.792Zm-13.723-41.343v28.891c0,.607-.492,1.098-1.098,1.098s-1.099-.492-1.099-1.098v-28.891c0-.607.492-1.098,1.099-1.098s1.098.492,1.098,1.098Zm10.203-.206l-.893,28.891c-.018.595-.506,1.065-1.097,1.065-.011,0-.023,0-.035,0-.606-.019-1.083-.526-1.064-1.132l.893-28.891c.019-.606.526-1.081,1.132-1.064.606.019,1.083.526,1.064,1.132Zm-20.445-.062l.96,28.891c.02.606-.455,1.114-1.061,1.134-.012,0-.025,0-.037,0-.59,0-1.078-.468-1.097-1.062l-.96-28.891c-.02-.606.455-1.114,1.061-1.134.607-.018,1.114.455,1.134,1.061Z"/></svg>