<svg xmlns:inkscape="http://www.inkscape.org/namespaces/inkscape" xmlns:sodipodi="http://sodipodi.sourceforge.net/DTD/sodipodi-0.dtd" xmlns="http://www.w3.org/2000/svg" xmlns:svg="http://www.w3.org/2000/svg" xmlns:rdf="http://www.w3.org/1999/02/22-rdf-syntax-ns#" xmlns:cc="http://creativecommons.org/ns#" xmlns:dc="http://purl.org/dc/elements/1.1/" viewBox="-2 -1 12 12" version="1.1" x="0px" y="0px"><g><path style="color:#000000;" d="m 4.2382262,1.1560868 c -0.630128,0.01676 -1.130243,0.55839 -1.130243,1.203111 a 0.26460241,0.26460241 0 0 0 0.265635,0.265635 0.26460241,0.26460241 0 0 0 0.264086,-0.265635 c 0,-0.382547 0.28654,-0.673908 0.630496,-0.673908 0.343957,0 0.628946,0.291361 0.628946,0.673908 0,0.382547 -0.284989,0.675975 -0.628946,0.675975 h -3.21088 a 0.26460241,0.26460241 0 0 0 -0.26356804,0.263567 0.26460241,0.26460241 0 0 0 0.26356804,0.265636 h 3.21088 c 0.644232,0 1.158666,-0.550223 1.158666,-1.205178 0,-0.654955 -0.514434,-1.203111 -1.158666,-1.203111 -0.01006,0 -0.01997,-2.66e-4 -0.02997,0 z m 2.803641,1.198976 c -0.644231,0 -1.158149,0.548156 -1.158149,1.203111 a 0.26460241,0.26460241 0 0 0 0.263567,0.265636 0.26460241,0.26460241 0 0 0 0.265636,-0.265636 c 0,-0.382546 0.28499,-0.673391 0.628946,-0.673391 0.343957,0 0.631013,0.290845 0.631013,0.673391 0,0.382547 -0.287056,0.675975 -0.631013,0.675975 h -5.984547 a 0.26460241,0.26460241 0 0 0 -0.26356804,0.263568 0.26460241,0.26460241 0 0 0 0.26356804,0.265636 h 5.984547 c 0.644232,0 1.160216,-0.550223 1.160216,-1.205179 0,-0.654955 -0.515984,-1.203111 -1.160216,-1.203111 z m -5.984547,3.076512 a 0.26460241,0.26460241 0 0 0 -0.26356804,0.265636 0.26460241,0.26460241 0 0 0 0.26356804,0.263567 h 3.738533 c 0.343956,0 0.631013,0.29343 0.631013,0.675975 0,0.382547 -0.287057,0.673908 -0.631013,0.673908 -0.343957,0 -0.628945,-0.291361 -0.628945,-0.673908 a 0.26460241,0.26460241 0 0 0 -0.265636,-0.265635 0.26460241,0.26460241 0 0 0 -0.263568,0.265635 c 1e-6,0.654957 0.513917,1.203112 1.158149,1.203112 0.644231,0 1.160217,-0.548155 1.160217,-1.203112 0,-0.649484 -0.507497,-1.195576 -1.144197,-1.204661 a 0.26460241,0.26460241 0 0 0 -0.01602,-5.17e-4 z" fill="#000000" fill-opacity="1" stroke-width="1.00007" stroke-linecap="round" stroke-linejoin="round"/></g></svg>