<svg xmlns="http://www.w3.org/2000/svg" version="1.1" viewBox="-15.0 -10.0 130.0 130.0">
 <path d="m50 19.445c8.1367 0 15.504 3.4297 20.836 8.9727 5.3164 5.5273 8.6055 13.16 8.6055 21.582s-3.2891 16.055-8.6055 21.582c-5.332 5.543-12.699 8.9727-20.836 8.9727s-15.504-3.4297-20.836-8.9727c-5.3164-5.5273-8.6055-13.16-8.6055-21.582s3.2891-16.055 8.6055-21.582c5.332-5.543 12.699-8.9727 20.836-8.9727zm42.812 13.602-18.008-8.1445c-0.75391-0.33984-1.0898-1.2266-0.75-1.9805 0.09375-0.20703 0.22656-0.37891 0.38672-0.51953l4.5977-4.2188c-3.9453-3.5273-8.5117-6.3867-13.508-8.3945-5.2891-2.125-11.07-3.293-17.133-3.293-8.6133 0-16.668 2.3633-23.551 6.4727-7.1289 4.2578-13.012 10.395-16.961 17.723-0.39062 0.72656-1.3008 1-2.0273 0.60938s-1-1.3008-0.60938-2.0273c4.2031-7.8008 10.469-14.336 18.062-18.871 7.3398-4.3867 15.926-6.9102 25.086-6.9102 6.4414 0 12.602 1.25 18.246 3.5156 5.4141 2.1758 10.352 5.2891 14.605 9.1406l4.8086-4.4102c0.60938-0.55859 1.5586-0.51953 2.1172 0.089844 0.16016 0.17188 0.26953 0.375 0.33203 0.58594l6.3359 18.793c0.26172 0.78125-0.16016 1.6328-0.94531 1.8945-0.37109 0.125-0.75781 0.09375-1.0898-0.054687zm-7.7734-6.8047 5.8711 2.6562-4.5195-13.398-4.1211 3.7812-0.027343 0.027344-4.1406 3.8008 6.9336 3.1367zm-77.852 40.703 18.008 8.1445c0.75391 0.33984 1.0898 1.2266 0.75 1.9805-0.09375 0.20703-0.22656 0.37891-0.38672 0.51953l-4.5977 4.2188c3.9453 3.5273 8.5117 6.3867 13.508 8.3945 5.2891 2.125 11.07 3.293 17.133 3.293 8.6133 0 16.668-2.3633 23.551-6.4727 7.1289-4.2578 13.012-10.395 16.961-17.723 0.39062-0.72656 1.3008-1 2.0273-0.60938s1 1.3008 0.60938 2.0273c-4.2031 7.8008-10.469 14.336-18.062 18.871-7.3398 4.3867-15.926 6.9102-25.086 6.9102-6.4414 0-12.602-1.25-18.246-3.5156-5.4141-2.1758-10.352-5.2891-14.605-9.1406l-4.8086 4.4102c-0.60938 0.55859-1.5586 0.51953-2.1172-0.089844-0.16016-0.17187-0.26953-0.375-0.33203-0.58594l-6.3359-18.793c-0.26172-0.78125 0.16016-1.6328 0.94531-1.8945 0.37109-0.125 0.75781-0.09375 1.0898 0.054687zm7.7734 6.8047-5.8711-2.6562 4.5195 13.398 4.1211-3.7812 0.027343-0.027344 4.1406-3.8008-6.9336-3.1367zm19.324-21.527c-0.58203-0.58594-0.57812-1.5312 0.007813-2.1172 0.58594-0.58203 1.5312-0.57812 2.1172 0.007812l8.4844 8.5508 18.66-20.516c0.55469-0.61328 1.5039-0.65625 2.1172-0.10156s0.65625 1.5039 0.10156 2.1172l-19.773 21.734c-0.58594 0.58203-1.5312 0.57812-2.1172-0.007813l-9.5938-9.668zm34.395-21.73c-4.7812-4.9727-11.387-8.0469-18.68-8.0469s-13.898 3.0742-18.68 8.0469c-4.7969 4.9883-7.7617 11.883-7.7617 19.508 0 7.6211 2.9688 14.52 7.7617 19.508 4.7812 4.9688 11.387 8.0469 18.68 8.0469s13.898-3.0742 18.68-8.0469c4.7969-4.9844 7.7617-11.883 7.7617-19.508 0-7.6211-2.9688-14.52-7.7617-19.508z"/>
</svg>