<svg xmlns="http://www.w3.org/2000/svg" xmlns:xlink="http://www.w3.org/1999/xlink" version="1.1" x="0px" y="0px" viewBox="-21 -17 100 100" style="enable-background:new 0 0 64 64;" xml:space="preserve"><g><path d="M27.1,33.87H6c-1.65,0-3,1.35-3,3V52c0,1.65,1.35,3,3,3h21.1c1.65,0,3-1.35,3-3V36.87C30.1,35.21,28.76,33.87,27.1,33.87z    M28.1,52c0,0.55-0.45,1-1,1H6c-0.55,0-1-0.45-1-1V36.87c0-0.55,0.45-1,1-1h21.1c0.55,0,1,0.45,1,1V52z"/><path d="M58,33.87H36.9c-1.65,0-3,1.35-3,3V52c0,1.65,1.35,3,3,3H58c1.65,0,3-1.35,3-3V36.87C61,35.21,59.65,33.87,58,33.87z    M59,52c0,0.55-0.45,1-1,1H36.9c-0.55,0-1-0.45-1-1V36.87c0-0.55,0.45-1,1-1H58c0.55,0,1,0.45,1,1V52z"/><path d="M27.1,9H6c-1.65,0-3,1.35-3,3v15.13c0,1.65,1.35,3,3,3h21.1c1.65,0,3-1.35,3-3V12C30.1,10.35,28.76,9,27.1,9z M28.1,27.13   c0,0.55-0.45,1-1,1H6c-0.55,0-1-0.45-1-1V12c0-0.55,0.45-1,1-1h21.1c0.55,0,1,0.45,1,1V27.13z"/><path d="M58,9H36.9c-1.65,0-3,1.35-3,3v15.13c0,1.65,1.35,3,3,3H58c1.65,0,3-1.35,3-3V12C61,10.35,59.65,9,58,9z M59,27.13   c0,0.55-0.45,1-1,1H36.9c-0.55,0-1-0.45-1-1V12c0-0.55,0.45-1,1-1H58c0.55,0,1,0.45,1,1V27.13z"/></g></svg>