<svg width="20" height="20" viewBox="0 0 24 24" fill="none" xmlns="http://www.w3.org/2000/svg">
<path d="M12.0003 0C8.6866 0 6.00031 2.68629 6.00031 6H4.75134C3.24774 6 1.97638 7.11309 1.77766 8.60351L0.310993 19.6035C0.0711996 21.402 1.47031 23 3.28468 23H20.7159C22.5303 23 23.9294 21.402 23.6896 19.6035L22.223 8.60351C22.0242 7.11309 20.7529 6 19.2493 6H18.0003C18.0003 2.68629 15.314 0 12.0003 0ZM16.0003 6H8.00031C8.00031 3.79086 9.79117 2 12.0003 2C14.2094 2 16.0003 3.79086 16.0003 6ZM4.75134 8H19.2493C19.7505 8 20.1743 8.37103 20.2405 8.86784L21.7072 19.8678C21.7871 20.4673 21.3207 21 20.7159 21H3.28468C2.67989 21 2.21352 20.4673 2.29345 19.8678L3.76012 8.86784C3.82636 8.37103 4.25014 8 4.75134 8Z" fill="white"/>
</svg>
