<svg width="30" height="30" viewBox="0 0 30 30" fill="none" xmlns="http://www.w3.org/2000/svg">
<path fill-rule="evenodd" clip-rule="evenodd" d="M3.87109 25.9717L3.87109 14.5135L12.227 14.5135L12.227 25.9717L3.87109 25.9717ZM5.27734 24.5654L10.8208 24.5654L10.8208 15.9197L5.27734 15.9197L5.27734 24.5654Z" fill="white"></path>
<path fill-rule="evenodd" clip-rule="evenodd" d="M10.8203 25.9717L10.8203 9.7634L19.1763 9.7634L19.1763 25.9717L10.8203 25.9717ZM12.2266 24.5654L17.77 24.5654L17.77 11.1696L12.2266 11.1697L12.2266 24.5654Z" fill="white"></path>
<path fill-rule="evenodd" clip-rule="evenodd" d="M17.7695 25.9717L17.7695 4.02739L26.1255 4.02739L26.1255 25.9717L17.7695 25.9717ZM19.1758 24.5654L24.7192 24.5654L24.7192 5.43364L19.1758 5.43364L19.1758 24.5654Z" fill="white"></path>
</svg>