<svg version="1.1" xmlns="http://www.w3.org/2000/svg" xmlns:xlink="http://www.w3.org/1999/xlink" x="0px" y="0px"
	 viewBox="0 0 500 500" style="enable-background:new 0 0 500 500;" xml:space="preserve">

<g id="OBJECTS">
	<g>
		<g>
			<path style="fill:#c0ff01;" d="M249.999,396.384c-14.061,0-27.969-1.992-41.337-5.92c-0.211-0.063-0.419-0.131-0.625-0.205
				c-19.485-6.133-32.492-15.763-38.667-28.632c-5.869-12.231-5.426-26.549,1.356-43.772l69.089-173.932
				c1.658-4.173,5.693-6.913,10.184-6.913c4.49,0,8.526,2.739,10.184,6.913l68.738,173.048c0.119,0.298,0.237,0.595,0.354,0.893
				c2.21,5.626-0.552,11.977-6.174,14.197c-5.619,2.22-11.977-0.53-14.208-6.146l-0.34-0.856
				c-17.879-44.477-54.56-51.145-74.914-51.145c-6.052,0-10.957-4.906-10.957-10.957S227.588,252,233.639,252
				c18.933,0,36.14,4.379,50.919,12.653l-34.56-87.004l-58.893,148.266c-4.475,11.364-5.107,19.709-1.978,26.231
				c3.48,7.252,12.185,13.083,25.873,17.33c0.09,0.028,0.179,0.056,0.267,0.086c11.229,3.257,22.913,4.908,34.731,4.908
				c68.633,0,124.47-55.837,124.47-124.469c0-68.633-55.837-124.47-124.47-124.47c-68.633,0-124.469,55.836-124.469,124.47
				c0,18.877,4.114,37.003,12.229,53.873c2.623,5.455,0.328,12.002-5.126,14.625c-5.454,2.62-12.001,0.328-14.624-5.126
				c-9.552-19.859-14.394-41.181-14.394-63.373c0-80.716,65.667-146.384,146.384-146.384c80.717,0,146.385,65.668,146.385,146.384
				C396.384,330.716,330.716,396.384,249.999,396.384z"/>
		</g>
		<g>
			<g>
				<path style="fill:none;stroke:#434960;stroke-width:1.2;stroke-linecap:round;stroke-linejoin:round;stroke-miterlimit:10;" d="
					M249.999,396.384c-14.061,0-27.969-1.992-41.337-5.92c-0.211-0.063-0.419-0.131-0.625-0.205
					c-19.485-6.133-32.492-15.763-38.667-28.632c-5.869-12.231-5.426-26.549,1.356-43.772l69.089-173.932
					c1.658-4.173,5.693-6.913,10.184-6.913c4.49,0,8.526,2.739,10.184,6.913l68.738,173.048c0.119,0.298,0.237,0.595,0.354,0.893
					c2.21,5.626-0.552,11.977-6.174,14.197c-5.619,2.22-11.977-0.53-14.208-6.146l-0.34-0.856
					c-17.879-44.477-54.56-51.145-74.914-51.145c-6.052,0-10.957-4.906-10.957-10.957S227.588,252,233.639,252
					c18.933,0,36.14,4.379,50.919,12.653l-34.56-87.004l-58.893,148.266c-4.475,11.364-5.107,19.709-1.978,26.231
					c3.48,7.252,12.185,13.083,25.873,17.33c0.09,0.028,0.179,0.056,0.267,0.086c11.229,3.257,22.913,4.908,34.731,4.908
					c68.633,0,124.47-55.837,124.47-124.469c0-68.633-55.837-124.47-124.47-124.47c-68.633,0-124.469,55.836-124.469,124.47
					c0,18.877,4.114,37.003,12.229,53.873c2.623,5.455,0.328,12.002-5.126,14.625c-5.454,2.62-12.001,0.328-14.624-5.126
					c-9.552-19.859-14.394-41.181-14.394-63.373c0-80.716,65.667-146.384,146.384-146.384c80.717,0,146.385,65.668,146.385,146.384
					C396.384,330.716,330.716,396.384,249.999,396.384z"/>
			</g>
			<g>
				<path style="fill:none;stroke:#434960;stroke-width:1.2;stroke-linecap:round;stroke-linejoin:round;stroke-miterlimit:10;" d="
					M313.875,322.944c-5.932-14.757-13.801-25.626-22.483-33.599"/>
				
					<line style="fill:none;stroke:#434960;stroke-width:1.2;stroke-linecap:round;stroke-linejoin:round;stroke-miterlimit:10;" x1="304.668" y1="271.428" x2="315.471" y2="298.625"/>
				
					<line style="fill:none;stroke:#434960;stroke-width:1.2;stroke-linecap:round;stroke-linejoin:round;stroke-miterlimit:10;" x1="260.918" y1="161.286" x2="275.091" y2="196.967"/>
				
					<line style="fill:none;stroke:#434960;stroke-width:1.2;stroke-linecap:round;stroke-linejoin:round;stroke-miterlimit:10;" x1="191.529" y1="280.998" x2="209.349" y2="236.137"/>
				<path style="fill:none;stroke:#434960;stroke-width:1.2;stroke-linecap:round;stroke-linejoin:round;stroke-miterlimit:10;" d="
					M390.657,250.001c0,41.866-18.386,79.518-47.507,105.307"/>
				<path style="fill:none;stroke:#434960;stroke-width:1.2;stroke-linecap:round;stroke-linejoin:round;stroke-miterlimit:10;" d="
					M158.631,143.141c24.597-21.062,56.523-33.798,91.368-33.798"/>
				<path style="fill:none;stroke:#434960;stroke-width:1.2;stroke-linecap:round;stroke-linejoin:round;stroke-miterlimit:10;" d="
					M119.803,250.001c0,14.807,2.421,29.174,7.214,42.879"/>
				<path style="fill:none;stroke:#434960;stroke-width:1.2;stroke-linecap:round;stroke-linejoin:round;stroke-miterlimit:10;" d="
					M366.099,191.106c-15.148-29.74-41.392-52.923-73.242-64.057"/>
				<path style="fill:none;stroke:#434960;stroke-width:1.2;stroke-linecap:round;stroke-linejoin:round;stroke-miterlimit:10;" d="
					M213.304,374.945l0.368,0.116c11.745,3.407,23.967,5.134,36.327,5.134"/>
				
					<line style="fill:none;stroke:#434960;stroke-width:1.2;stroke-linecap:round;stroke-linejoin:round;stroke-miterlimit:10;" x1="240.25" y1="186.679" x2="229.065" y2="214.839"/>
				
					<line style="fill:none;stroke:#434960;stroke-width:1.2;stroke-linecap:round;stroke-linejoin:round;stroke-miterlimit:10;" x1="281.773" y1="242.128" x2="263.485" y2="196.087"/>
				<path style="fill:none;stroke:#434960;stroke-width:1.2;stroke-linecap:round;stroke-linejoin:round;stroke-miterlimit:10;" d="
					M242.091,258.037c11.644,0.867,22.524,3.55,32.503,8.014"/>
			</g>
		</g>
	</g>
</g>
</svg>